<?xml version="1.0" encoding="iso-8859-1"?>
<!-- Generator: Adobe Illustrator 19.0.0, SVG Export Plug-In . SVG Version: 6.00 Build 0)  -->
<svg xmlns="http://www.w3.org/2000/svg" xmlns:xlink="http://www.w3.org/1999/xlink" version="1.1" id="Layer_1" x="0px" y="0px" viewBox="0 0 512.002 512.002" style="enable-background:new 0 0 512.002 512.002;" xml:space="preserve" width="512px" height="512px">
<g>
	<g>
		<path d="M479.378,223.379c-4.516,0-8.891,0.908-13.003,2.7c-8.205,3.573-16.346,5.69-24.27,6.316    c-3.451-8.631-11.899-14.744-21.747-14.744c-3.58,0-6.972,0.812-10.008,2.255c-3.988-17.059-10.745-33.063-19.76-47.521    c3.194-1.125,6.198-2.936,8.748-5.485c6.963-6.964,8.614-17.26,4.952-25.803c6.045-5.159,13.298-9.418,21.627-12.695    c4.178-1.644,7.915-4.095,11.104-7.286c12.719-12.719,12.718-33.415-0.001-46.135c-12.72-12.718-33.414-12.719-46.135-0.001    c-3.194,3.195-5.645,6.93-7.285,11.104c-3.273,8.324-7.531,15.575-12.687,21.619c-2.886-1.242-6.022-1.895-9.259-1.895    c-6.253,0-12.131,2.435-16.553,6.856c-2.506,2.506-4.372,5.481-5.52,8.726c-14.449-9.004-30.441-15.754-47.487-19.739    c1.443-3.037,2.255-6.429,2.255-10.009c0-9.848-6.113-18.295-14.744-21.747c0.626-7.923,2.743-16.063,6.316-24.269    c1.792-4.113,2.7-8.488,2.7-13.004c0-17.986-14.634-32.621-32.624-32.622c-17.987,0.001-32.622,14.635-32.622,32.622    c0,4.516,0.909,8.891,2.7,13.003c3.573,8.206,5.69,16.346,6.316,24.27c-8.631,3.452-14.744,11.899-14.744,21.747    c0,3.577,0.811,6.967,2.252,10.001c-1.97,0.458-3.934,0.944-5.884,1.479c-3.995,1.095-6.347,5.22-5.252,9.215    c1.095,3.995,5.22,6.346,9.215,5.252c12.324-3.376,25.115-5.088,38.019-5.088c79.126,0,143.5,64.374,143.5,143.5    s-64.37,143.501-143.496,143.501s-143.5-64.374-143.5-143.5c0-53.563,29.498-102.299,76.981-127.187    c3.669-1.923,5.084-6.455,3.161-10.124c-1.922-3.668-6.455-5.086-10.124-3.161c-3.464,1.815-6.835,3.753-10.122,5.792    c-1.15-3.218-3.009-6.168-5.497-8.657c-4.421-4.422-10.3-6.857-16.553-6.857c-3.236,0-6.374,0.653-9.26,1.895    c-5.156-6.045-9.412-13.296-12.685-21.619c-1.642-4.175-4.094-7.911-7.287-11.104c-12.719-12.716-33.414-12.715-46.134,0.002    c-12.719,12.72-12.72,33.416-0.002,46.133c3.191,3.192,6.927,5.644,11.105,7.288c8.33,3.276,15.583,7.537,21.628,12.695    c-3.663,8.543-2.012,18.839,4.952,25.803c2.523,2.523,5.49,4.322,8.646,5.45c-9.054,14.58-15.723,30.622-19.661,47.555    c-3.036-1.443-6.427-2.255-10.007-2.255c-9.848,0-18.296,6.113-21.747,14.744c-7.923-0.626-16.063-2.743-24.269-6.316    c-4.113-1.792-8.488-2.7-13.004-2.7c-17.985,0-32.62,14.634-32.621,32.623c0.001,17.987,14.636,32.622,32.623,32.622    c4.514,0,8.888-0.908,13.003-2.699c8.206-3.573,16.348-5.69,24.27-6.317c3.451,8.631,11.899,14.744,21.747,14.744    c3.58,0,6.971-0.812,10.008-2.255c3.989,17.061,10.747,33.065,19.763,47.525c-3.195,1.123-6.199,2.932-8.75,5.482    c-6.963,6.964-8.613,17.26-4.951,25.803c-6.047,5.16-13.3,9.419-21.628,12.695c-4.175,1.642-7.911,4.093-11.104,7.286    c-12.718,12.719-12.717,33.415,0.002,46.136c6.36,6.359,14.714,9.539,23.067,9.538c8.354,0,16.708-3.179,23.067-9.538    c3.192-3.193,5.643-6.928,7.286-11.104c3.275-8.329,7.535-15.582,12.693-21.627c8.545,3.664,18.842,2.012,25.803-4.951    c2.506-2.506,4.373-5.481,5.521-8.726c14.449,9.004,30.441,15.754,47.487,19.739c-1.443,3.037-2.255,6.429-2.255,10.009    c0,9.848,6.113,18.295,14.744,21.747c-0.626,7.923-2.743,16.063-6.316,24.269c-1.792,4.114-2.7,8.489-2.7,13.004    c-0.003,17.984,14.632,32.618,32.62,32.618c17.988,0,32.623-14.634,32.623-32.622c0-4.515-0.909-8.89-2.7-13.004    c-3.573-8.206-5.69-16.345-6.316-24.269c8.631-3.452,14.744-11.899,14.744-21.747c0-3.58-0.812-6.972-2.255-10.009    c17.046-3.985,33.037-10.734,47.486-19.738c1.148,3.245,3.014,6.22,5.52,8.726c6.964,6.963,17.26,8.614,25.803,4.951    c5.159,6.045,9.419,13.298,12.694,21.625c1.642,4.176,4.094,7.913,7.286,11.106c6.359,6.359,14.713,9.538,23.066,9.538    c8.354,0,16.708-3.179,23.069-9.539c12.718-12.72,12.719-33.416-0.001-46.137c-3.192-3.19-6.927-5.642-11.102-7.284h-0.001    c-8.327-3.275-15.581-7.535-21.627-12.695c3.662-8.543,2.012-18.839-4.952-25.804c-2.55-2.55-5.554-4.358-8.749-5.481    c9.016-14.459,15.774-30.464,19.762-47.524c3.036,1.443,6.428,2.255,10.008,2.255c9.848,0,18.296-6.113,21.747-14.744    c7.921,0.627,16.063,2.744,24.271,6.318c4.114,1.791,8.488,2.698,13.002,2.698c17.986,0,32.622-14.634,32.623-32.624    C512,238.013,497.365,223.379,479.378,223.379z M270.943,98.119h-1.051c-4.579-0.399-9.21-0.616-13.891-0.616    c-4.617,0-9.219,0.22-13.798,0.616h-1.144v-0.001c-3.57,0-6.475-2.904-6.475-6.475c0-3.57,2.905-6.475,6.475-6.475    c4.676,0,8.467-3.791,8.467-8.467v-1.848c0-11.807-2.666-23.915-7.922-35.989c-0.857-1.968-1.292-4.067-1.292-6.241    c0-8.65,7.038-15.687,15.688-15.688c8.652,0,15.69,7.038,15.69,15.688c0,2.174-0.435,4.273-1.292,6.242    c-5.257,12.073-7.922,24.181-7.922,35.988v1.849c0,4.676,3.791,8.467,8.467,8.467c3.57,0,6.475,2.905,6.475,6.475    C277.418,95.214,274.513,98.119,270.943,98.119z M387.365,154.927c-2.525,2.523-6.634,2.525-9.157,0l-1.362-1.361    c-5.625-6.625-11.782-12.783-18.408-18.408l-1.361-1.362c-2.525-2.524-2.525-6.632,0-9.158c1.223-1.223,2.848-1.896,4.578-1.896    c1.729,0,3.355,0.673,4.578,1.897c3.308,3.306,8.667,3.306,11.975,0l1.306-1.306c8.349-8.349,15.026-18.796,19.846-31.052    c0.784-1.995,1.962-3.787,3.499-5.325c6.117-6.117,16.07-6.116,22.187,0.001s6.118,16.069,0,22.187    c-1.536,1.536-3.328,2.714-5.327,3.5c-12.254,4.82-22.7,11.497-31.051,19.848l-1.306,1.307c-3.304,3.307-3.303,8.666,0.002,11.972    C389.888,148.295,389.888,152.402,387.365,154.927z M92.284,112.643c-1.999-0.786-3.791-1.964-5.328-3.502    c-6.117-6.116-6.116-16.068,0.001-22.185c3.058-3.06,7.076-4.589,11.093-4.589c4.018,0,8.035,1.529,11.093,4.588    c1.538,1.538,2.717,3.33,3.502,5.326c4.817,12.253,11.494,22.7,19.846,31.053l1.307,1.306c3.306,3.306,8.667,3.305,11.972-0.003    c1.223-1.223,2.848-1.896,4.578-1.896c1.73,0,3.355,0.673,4.578,1.897c2.525,2.524,2.525,6.632,0,9.157l-0.461,0.461    c-7.425,6.181-14.215,12.992-20.326,20.327l-0.343,0.343c-2.524,2.523-6.633,2.525-9.157,0c-2.524-2.524-2.524-6.631,0-9.156    c3.305-3.306,3.306-8.665,0.002-11.972l-1.308-1.31C114.985,124.14,104.538,117.464,92.284,112.643z M98.118,242.212    c-0.394,4.56-0.617,9.156-0.617,13.79c0,4.685,0.217,9.319,0.617,13.902v1.039c0,3.57-2.905,6.475-6.475,6.475    c-3.57,0-6.475-2.905-6.475-6.475c0-4.676-3.791-8.467-8.467-8.467h-1.848c-11.804,0-23.912,2.666-35.986,7.922    c-1.969,0.857-4.069,1.292-6.243,1.292c-8.65,0-15.688-7.038-15.689-15.688c0.001-8.652,7.039-15.69,15.689-15.69    c2.174,0,4.273,0.435,6.242,1.292c12.073,5.257,24.181,7.922,35.987,7.922h1.848c4.676,0,8.467-3.791,8.467-8.467    c0-3.57,2.905-6.475,6.475-6.475c3.57,0,6.475,2.905,6.475,6.475V242.212z M154.925,387.365c-2.523,2.525-6.632,2.525-9.156,0    c-3.308-3.306-8.667-3.306-11.975,0l-1.307,1.307c-8.348,8.348-15.024,18.795-19.843,31.048c-0.786,1.998-1.964,3.791-3.502,5.328    c-6.116,6.116-16.068,6.117-22.186,0.001c-6.117-6.118-6.118-16.071-0.003-22.187c1.539-1.538,3.332-2.716,5.329-3.502    c12.253-4.818,22.699-11.495,31.05-19.845l1.306-1.306c3.306-3.307,3.306-8.667,0-11.974c-2.524-2.525-2.524-6.633-0.001-9.158    c1.263-1.263,2.921-1.893,4.58-1.893c1.658,0,3.316,0.63,4.578,1.892l1.356,1.356c5.626,6.627,11.785,12.787,18.412,18.413    l1.363,1.364c1.223,1.223,1.896,2.848,1.896,4.578C156.822,384.517,156.149,386.142,154.925,387.365z M270.943,426.836    c-4.676,0-8.467,3.791-8.467,8.467v1.848c0,11.807,2.666,23.915,7.922,35.987c0.857,1.969,1.292,4.069,1.292,6.243    c0,8.65-7.038,15.688-15.689,15.688s-15.689-7.038-15.689-15.688c0-2.174,0.435-4.274,1.292-6.243    c5.257-12.072,7.922-24.18,7.922-35.987v-1.849c0-4.676-3.791-8.467-8.467-8.467c-3.57,0-6.475-2.905-6.475-6.475    s2.905-6.475,6.475-6.475h1.045c4.581,0.4,9.214,0.616,13.896,0.616c4.682,0,9.316-0.216,13.896-0.616h1.047v0.001    c3.57,0,6.475,2.905,6.475,6.475S274.513,426.836,270.943,426.836z M419.718,399.361c1.998,0.786,3.791,1.964,5.328,3.5    c6.117,6.118,6.116,16.071,0,22.188c-6.119,6.117-16.072,6.117-22.187,0c-1.538-1.537-2.716-3.33-3.501-5.328    c-4.821-12.255-11.498-22.701-19.843-31.045l-1.306-1.308c-1.588-1.589-3.741-2.482-5.988-2.482h-0.002    c-2.245,0-4.399,0.892-5.987,2.48c-2.522,2.523-6.63,2.525-9.156,0c-1.223-1.223-1.896-2.849-1.896-4.578s0.673-3.355,1.897-4.578    l1.367-1.367c6.625-5.625,12.782-11.783,18.407-18.409l1.355-1.356c2.523-2.525,6.632-2.526,9.157-0.001    c2.524,2.525,2.524,6.633,0,9.159c-3.306,3.306-3.306,8.667,0,11.974l1.306,1.306    C397.019,387.866,407.466,394.542,419.718,399.361z M479.378,271.69c-2.174,0-4.274-0.435-6.242-1.291    c-12.075-5.258-24.183-7.923-35.987-7.923h-1.848c-4.676,0-8.467,3.791-8.467,8.467c0,3.57-2.905,6.475-6.475,6.475    s-6.475-2.905-6.475-6.475v-1.04c0.4-4.583,0.617-9.217,0.617-13.902s-0.217-9.319-0.617-13.902v-1.041    c0-3.57,2.905-6.475,6.475-6.475s6.475,2.905,6.475,6.475c0,4.676,3.791,8.467,8.467,8.467h1.848    c11.806,0,23.914-2.666,35.988-7.922c1.968-0.857,4.067-1.292,6.241-1.292c8.65,0,15.688,7.038,15.689,15.688    C495.066,264.652,488.028,271.69,479.378,271.69z" fill="#FFFFFF"/>
	</g>
</g>
<g>
	<g>
		<circle cx="256.001" cy="135.002" r="7.5" fill="#FFFFFF"/>
	</g>
</g>
<g>
	<g>
		<circle cx="256.001" cy="377.002" r="7.5" fill="#FFFFFF"/>
	</g>
</g>
<g>
	<g>
		<circle cx="377.001" cy="256.002" r="7.5" fill="#FFFFFF"/>
	</g>
</g>
<g>
	<g>
		<circle cx="135.001" cy="256.002" r="7.5" fill="#FFFFFF"/>
	</g>
</g>
<g>
	<g>
		<circle cx="341.561" cy="341.562" r="7.5" fill="#FFFFFF"/>
	</g>
</g>
<g>
	<g>
		<circle cx="170.441" cy="170.442" r="7.5" fill="#FFFFFF"/>
	</g>
</g>
<g>
	<g>
		<circle cx="170.441" cy="341.562" r="7.5" fill="#FFFFFF"/>
	</g>
</g>
<g>
	<g>
		<circle cx="341.561" cy="170.442" r="7.5" fill="#FFFFFF"/>
	</g>
</g>
<g>
	<g>
		<path d="M256.001,157.502c-54.313,0-98.5,44.187-98.5,98.5s44.187,98.5,98.5,98.5s98.5-44.187,98.5-98.5    S310.314,157.502,256.001,157.502z M339.147,248.502h-26.151c-1.342-10.251-5.388-19.659-11.406-27.483l18.486-18.485    C330.685,215.226,337.59,231.103,339.147,248.502z M263.501,172.856c17.399,1.557,33.276,8.463,45.968,19.071l-18.485,18.486    c-7.824-6.018-17.232-10.063-27.483-11.406V172.856z M248.501,172.856v26.151c-10.251,1.342-19.659,5.388-27.483,11.406    l-18.485-18.486C215.225,181.319,231.103,174.413,248.501,172.856z M191.926,202.534l18.486,18.485    c-6.018,7.824-10.063,17.231-11.406,27.483h-26.151C174.412,231.103,181.316,215.226,191.926,202.534z M172.855,263.502h26.151    c1.342,10.251,5.388,19.659,11.406,27.483l-18.486,18.485C181.316,296.778,174.412,280.901,172.855,263.502z M248.501,339.148    c-17.399-1.557-33.276-8.463-45.968-19.071l18.485-18.486c7.824,6.018,17.232,10.063,27.483,11.406V339.148z M213.501,256.002    c0-23.435,19.065-42.5,42.5-42.5s42.5,19.065,42.5,42.5s-19.065,42.5-42.5,42.5S213.501,279.437,213.501,256.002z     M263.501,339.148v-26.151h0c10.251-1.342,19.659-5.388,27.483-11.406l18.485,18.486    C296.777,330.685,280.899,337.591,263.501,339.148z M320.076,309.47l-18.486-18.485c6.018-7.824,10.063-17.231,11.406-27.483    h26.151C337.59,280.901,330.685,296.778,320.076,309.47z" fill="#FFFFFF"/>
	</g>
</g>
<g>
	<g>
		<circle cx="256.001" cy="256.002" r="7.5" fill="#FFFFFF"/>
	</g>
</g>
<g>
</g>
<g>
</g>
<g>
</g>
<g>
</g>
<g>
</g>
<g>
</g>
<g>
</g>
<g>
</g>
<g>
</g>
<g>
</g>
<g>
</g>
<g>
</g>
<g>
</g>
<g>
</g>
<g>
</g>
</svg>
