<?xml version="1.0" encoding="UTF-8" standalone="no"?>
<!DOCTYPE svg PUBLIC "-//W3C//DTD SVG 1.1//EN" "http://www.w3.org/Graphics/SVG/1.1/DTD/svg11.dtd">
<svg width="100%" height="100%" viewBox="0 0 1390 129" version="1.1" xmlns="http://www.w3.org/2000/svg" xmlns:xlink="http://www.w3.org/1999/xlink" xml:space="preserve" style="fill-rule:evenodd;clip-rule:evenodd;stroke-linejoin:round;stroke-miterlimit:1.41421;">
    <g transform="matrix(1,0,0,1,-581.532,-1540.26)">
        <g transform="matrix(1.40136,0,0,1.40136,100.442,-246.523)">
            <rect x="343.302" y="1275.03" width="15.5" height="91.625" style="fill:white;fill-rule:nonzero;"/>
            <path d="M437.302,1319.03C440.636,1321.03 443.198,1323.49 444.99,1326.41C446.782,1329.32 447.677,1332.53 447.677,1336.03C447.677,1339.2 446.927,1342.57 445.427,1346.16C443.927,1349.74 441.615,1353.05 438.49,1356.09C435.365,1359.13 431.407,1361.66 426.615,1363.66C421.823,1365.66 416.136,1366.66 409.552,1366.66C403.552,1366.66 398.282,1365.8 393.74,1364.09C389.198,1362.38 385.365,1360.22 382.24,1357.59C379.115,1354.97 376.698,1352.03 374.99,1348.78C373.282,1345.53 372.177,1342.37 371.677,1339.28L386.802,1336.41C386.886,1337.32 387.24,1338.62 387.865,1340.28C388.49,1341.95 389.657,1343.62 391.365,1345.28C393.073,1346.95 395.386,1348.38 398.302,1349.59C401.219,1350.8 404.969,1351.41 409.552,1351.41C414.302,1351.41 418.157,1350.76 421.115,1349.47C424.073,1348.18 426.386,1346.68 428.052,1344.97C429.719,1343.26 430.844,1341.55 431.427,1339.84C432.011,1338.13 432.302,1336.87 432.302,1336.03C432.302,1334.2 430.469,1332.47 426.802,1330.84C423.136,1329.22 417.386,1328.41 409.552,1328.41C403.636,1328.41 398.594,1327.97 394.427,1327.09C390.261,1326.22 386.761,1325.07 383.927,1323.66C381.094,1322.24 378.844,1320.68 377.177,1318.97C375.511,1317.26 374.261,1315.55 373.427,1313.84C372.594,1312.13 372.052,1310.55 371.802,1309.09C371.552,1307.63 371.427,1306.45 371.427,1305.53C371.427,1302.37 372.177,1298.99 373.677,1295.41C375.177,1291.82 377.49,1288.53 380.615,1285.53C383.74,1282.53 387.698,1280.03 392.49,1278.03C397.282,1276.03 402.969,1275.03 409.552,1275.03C415.552,1275.03 420.823,1275.88 425.365,1277.59C429.907,1279.3 433.74,1281.47 436.865,1284.09C439.99,1286.72 442.407,1289.63 444.115,1292.84C445.823,1296.05 446.927,1299.2 447.427,1302.28L432.302,1305.28C432.219,1304.37 431.865,1303.07 431.24,1301.41C430.615,1299.74 429.448,1298.09 427.74,1296.47C426.032,1294.84 423.719,1293.43 420.802,1292.22C417.886,1291.01 414.136,1290.41 409.552,1290.41C404.886,1290.41 401.073,1291.05 398.115,1292.34C395.157,1293.63 392.844,1295.13 391.177,1296.84C389.511,1298.55 388.365,1300.24 387.74,1301.91C387.115,1303.57 386.802,1304.78 386.802,1305.53C386.802,1306.28 387.198,1307.12 387.99,1308.03C388.782,1308.95 390.073,1309.78 391.865,1310.53C393.657,1311.28 396.011,1311.91 398.927,1312.41C401.844,1312.91 405.386,1313.16 409.552,1313.16C421.469,1313.16 430.719,1315.12 437.302,1319.03Z" style="fill:white;fill-rule:nonzero;"/>
            <path d="M513.302,1275.03L528.677,1275.03L528.677,1366.66L513.302,1366.66L513.302,1275.03ZM508.677,1324.53L505.677,1339.91L475.552,1339.91L475.552,1366.66L460.177,1366.66L460.177,1339.91L460.177,1324.53L460.177,1275.03L475.552,1275.03L475.552,1324.53L508.677,1324.53Z" style="fill:white;fill-rule:nonzero;"/>
            <path d="M586.802,1275.03L632.552,1366.66L540.927,1366.66L586.802,1275.03ZM586.802,1306.28L563.677,1352.66L609.927,1352.66L586.802,1306.28Z" style="fill:white;fill-rule:nonzero;"/>
            <path d="M716.052,1309.16C716.052,1312.66 715.552,1315.99 714.552,1319.16C713.552,1322.32 712.157,1325.26 710.365,1327.97C708.573,1330.68 706.427,1333.09 703.927,1335.22C701.427,1337.34 698.677,1339.07 695.677,1340.41L714.927,1366.66L695.802,1366.66L678.552,1343.16L666.427,1343.16L663.302,1327.78L682.052,1327.78C684.636,1327.78 687.052,1327.3 689.302,1326.34C691.552,1325.38 693.511,1324.05 695.177,1322.34C696.844,1320.63 698.177,1318.66 699.177,1316.41C700.177,1314.16 700.677,1311.74 700.677,1309.16C700.677,1306.57 700.177,1304.16 699.177,1301.91C698.177,1299.66 696.844,1297.7 695.177,1296.03C693.511,1294.37 691.552,1293.03 689.302,1292.03C687.052,1291.03 684.636,1290.53 682.052,1290.53L660.677,1290.53L660.677,1366.66L645.302,1366.66L645.302,1290.53L645.302,1282.78L645.302,1275.03L682.052,1275.03C686.719,1275.03 691.115,1275.93 695.24,1277.72C699.365,1279.51 702.969,1281.95 706.052,1285.03C709.136,1288.12 711.573,1291.72 713.365,1295.84C715.157,1299.97 716.052,1304.41 716.052,1309.16Z" style="fill:white;fill-rule:nonzero;"/>
            <path d="M797.427,1275.03L797.427,1290.53L744.177,1290.53L744.177,1324.53L779.677,1324.53L776.677,1340.03L744.177,1340.03L744.177,1351.16L797.427,1351.16L797.427,1366.66L728.677,1366.66L728.677,1351.16L728.677,1340.03L728.677,1324.53L728.677,1290.53L728.677,1282.78L728.677,1275.03L797.427,1275.03Z" style="fill:white;fill-rule:nonzero;"/>
            <path d="M901.427,1290.53L809.677,1290.53L809.677,1275.03L901.427,1275.03L901.427,1290.53ZM863.302,1296.91L863.302,1366.66L847.802,1366.66L847.802,1293.91L863.302,1296.91Z" style="fill:white;fill-rule:nonzero;"/>
            <rect x="913.927" y="1275.03" width="15.5" height="91.625" style="fill:white;fill-rule:nonzero;"/>
            <path d="M978.802,1275.03C983.469,1275.03 987.865,1275.93 991.99,1277.72C996.115,1279.51 999.719,1281.95 1002.8,1285.03C1005.89,1288.12 1008.32,1291.72 1010.12,1295.84C1011.91,1299.97 1012.8,1304.41 1012.8,1309.16C1012.8,1313.82 1011.91,1318.22 1010.12,1322.34C1008.32,1326.47 1005.89,1330.07 1002.8,1333.16C999.719,1336.24 996.115,1338.68 991.99,1340.47C987.865,1342.26 983.469,1343.16 978.802,1343.16L963.302,1343.16L960.302,1327.78L978.802,1327.78C981.386,1327.78 983.802,1327.3 986.052,1326.34C988.302,1325.38 990.261,1324.05 991.927,1322.34C993.594,1320.63 994.927,1318.66 995.927,1316.41C996.927,1314.16 997.427,1311.74 997.427,1309.16C997.427,1306.57 996.927,1304.16 995.927,1301.91C994.927,1299.66 993.594,1297.7 991.927,1296.03C990.261,1294.37 988.302,1293.03 986.052,1292.03C983.802,1291.03 981.386,1290.53 978.802,1290.53L957.427,1290.53L957.427,1366.66L942.052,1366.66L942.052,1290.53L942.052,1282.78L942.052,1275.03L978.802,1275.03Z" style="fill:white;fill-rule:nonzero;"/>
            <path d="M1035.8,1361.28C1035.8,1362.78 1035.28,1364.05 1034.24,1365.09C1033.2,1366.13 1031.93,1366.66 1030.43,1366.66C1028.93,1366.66 1027.66,1366.13 1026.62,1365.09C1025.57,1364.05 1025.05,1362.78 1025.05,1361.28C1025.05,1359.78 1025.57,1358.49 1026.62,1357.41C1027.66,1356.32 1028.93,1355.78 1030.43,1355.78C1031.93,1355.78 1033.2,1356.32 1034.24,1357.41C1035.28,1358.49 1035.8,1359.78 1035.8,1361.28Z" style="fill:white;fill-rule:nonzero;"/>
            <path d="M1126.43,1353.28C1122.18,1357.45 1117.3,1360.72 1111.8,1363.09C1106.3,1365.47 1100.39,1366.66 1094.05,1366.66C1087.72,1366.66 1081.76,1365.45 1076.18,1363.03C1070.59,1360.62 1065.74,1357.34 1061.62,1353.22C1057.49,1349.09 1054.22,1344.26 1051.8,1338.72C1049.39,1333.18 1048.18,1327.24 1048.18,1320.91C1048.18,1314.57 1049.39,1308.62 1051.8,1303.03C1054.22,1297.45 1057.49,1292.59 1061.62,1288.47C1065.74,1284.34 1070.59,1281.07 1076.18,1278.66C1081.76,1276.24 1087.72,1275.03 1094.05,1275.03C1100.39,1275.03 1106.32,1276.22 1111.87,1278.59C1117.41,1280.97 1122.26,1284.28 1126.43,1288.53L1115.3,1299.66C1112.55,1296.91 1109.37,1294.74 1105.74,1293.16C1102.12,1291.57 1098.22,1290.78 1094.05,1290.78C1089.89,1290.78 1085.97,1291.57 1082.3,1293.16C1078.64,1294.74 1075.45,1296.88 1072.74,1299.59C1070.03,1302.3 1067.89,1305.49 1066.3,1309.16C1064.72,1312.82 1063.93,1316.74 1063.93,1320.91C1063.93,1325.07 1064.72,1328.97 1066.3,1332.59C1067.89,1336.22 1070.03,1339.38 1072.74,1342.09C1075.45,1344.8 1078.64,1346.95 1082.3,1348.53C1085.97,1350.12 1089.89,1350.91 1094.05,1350.91C1098.22,1350.91 1102.12,1350.12 1105.74,1348.53C1109.37,1346.95 1112.55,1344.82 1115.3,1342.16L1126.43,1353.28ZM1101.18,1320.91C1101.18,1322.91 1100.47,1324.62 1099.05,1326.03C1097.64,1327.45 1095.93,1328.16 1093.93,1328.16C1091.93,1328.16 1090.2,1327.45 1088.74,1326.03C1087.28,1324.62 1086.55,1322.91 1086.55,1320.91C1086.55,1318.82 1087.28,1317.07 1088.74,1315.66C1090.2,1314.24 1091.93,1313.53 1093.93,1313.53C1095.93,1313.53 1097.64,1314.24 1099.05,1315.66C1100.47,1317.07 1101.18,1318.82 1101.18,1320.91Z" style="fill:white;fill-rule:nonzero;"/>
            <path d="M1184.93,1275.03C1191.26,1275.03 1197.2,1276.24 1202.74,1278.66C1208.28,1281.07 1213.12,1284.34 1217.24,1288.47C1221.37,1292.59 1224.64,1297.45 1227.05,1303.03C1229.47,1308.62 1230.68,1314.57 1230.68,1320.91C1230.68,1327.24 1229.47,1333.18 1227.05,1338.72C1224.64,1344.26 1221.37,1349.09 1217.24,1353.22C1213.12,1357.34 1208.28,1360.62 1202.74,1363.03C1197.2,1365.45 1191.26,1366.66 1184.93,1366.66C1178.59,1366.66 1172.66,1365.45 1167.12,1363.03C1161.57,1360.62 1156.72,1357.34 1152.55,1353.22C1148.39,1349.09 1145.09,1344.26 1142.68,1338.72C1140.26,1333.18 1139.05,1327.24 1139.05,1320.91C1139.05,1314.57 1140.26,1308.62 1142.68,1303.03C1145.09,1297.45 1148.39,1292.59 1152.55,1288.47C1156.72,1284.34 1161.57,1281.07 1167.12,1278.66C1172.66,1276.24 1178.59,1275.03 1184.93,1275.03ZM1215.05,1320.91C1215.05,1316.74 1214.26,1312.82 1212.68,1309.16C1211.09,1305.49 1208.95,1302.3 1206.24,1299.59C1203.53,1296.88 1200.34,1294.74 1196.68,1293.16C1193.01,1291.57 1189.09,1290.78 1184.93,1290.78C1180.76,1290.78 1176.84,1291.57 1173.18,1293.16C1169.51,1294.74 1166.32,1296.88 1163.62,1299.59C1160.91,1302.3 1158.76,1305.49 1157.18,1309.16C1155.59,1312.82 1154.8,1316.74 1154.8,1320.91C1154.8,1325.07 1155.59,1328.99 1157.18,1332.66C1158.76,1336.32 1160.91,1339.51 1163.62,1342.22C1166.32,1344.93 1169.51,1347.07 1173.18,1348.66C1176.84,1350.24 1180.76,1351.03 1184.93,1351.03C1189.09,1351.03 1193.01,1350.24 1196.68,1348.66C1200.34,1347.07 1203.53,1344.93 1206.24,1342.22C1208.95,1339.51 1211.09,1336.32 1212.68,1332.66C1214.26,1328.99 1215.05,1325.07 1215.05,1320.91ZM1192.3,1320.91C1192.3,1322.91 1191.57,1324.62 1190.12,1326.03C1188.66,1327.45 1186.93,1328.16 1184.93,1328.16C1182.93,1328.16 1181.2,1327.45 1179.74,1326.03C1178.28,1324.62 1177.55,1322.91 1177.55,1320.91C1177.55,1318.82 1178.28,1317.07 1179.74,1315.66C1181.2,1314.24 1182.93,1313.53 1184.93,1313.53C1186.93,1313.53 1188.66,1314.24 1190.12,1315.66C1191.57,1317.07 1192.3,1318.82 1192.3,1320.91Z" style="fill:white;fill-rule:nonzero;"/>
            <path d="M1257.3,1366.66L1243.18,1366.66L1254.68,1275.03L1282.3,1321.41L1297.05,1346.28L1288.93,1359.78L1276.93,1339.78L1263.55,1317.03L1257.3,1366.66ZM1299.8,1341.78L1291.68,1328.16L1323.68,1275.03L1334.93,1366.66L1320.8,1366.66L1314.8,1316.91L1300.93,1339.78L1299.8,1341.78Z" style="fill:white;fill-rule:nonzero;"/>
        </g>
    </g>
</svg>
