<?xml version="1.0" encoding="UTF-8" standalone="no"?>
<!DOCTYPE svg PUBLIC "-//W3C//DTD SVG 1.1//EN" "http://www.w3.org/Graphics/SVG/1.1/DTD/svg11.dtd">
<svg width="100%" height="100%" viewBox="0 0 1467 489" version="1.1" xmlns="http://www.w3.org/2000/svg" xmlns:xlink="http://www.w3.org/1999/xlink" xml:space="preserve" style="fill-rule:evenodd;clip-rule:evenodd;stroke-linecap:round;stroke-linejoin:round;stroke-miterlimit:1.5;">
    <g transform="matrix(1,0,0,1,-507.074,-1379.26)">
        <g transform="matrix(1,0,0,1,401.043,297)">
            <text x="336.927px" y="1366.66px" style="font-family:'Elianto-Regular', 'Elianto';font-size:125px;fill:white;">ISHARETIP.COM</text>
        </g>
        <g transform="matrix(1,0,0,1,52.1575,-23.6563)">
            <path d="M1445.21,1878L1919,1878L1919,1405L457,1405L457,1878L930.79,1878" style="fill:none;stroke:white;stroke-width:4.17px;"/>
        </g>
        <g transform="matrix(1,0,0,1,-18.0646,41.2895)">
            <text x="1060.41px" y="1826.05px" style="font-family:'Anders';font-size:41.667px;fill:white;">S<tspan x="1085.08px 1119.54px 1149.41px 1174.99px 1184.62px 1220.12px 1251.74px 1265.62px 1294.62px 1324.66px 1354.54px 1380.12px 1389.74px 1425.24px " y="1826.05px 1826.05px 1826.05px 1826.05px 1826.05px 1826.05px 1826.05px 1826.05px 1826.05px 1826.05px 1826.05px 1826.05px 1826.05px 1826.05px ">HARINGISCARING</tspan></text>
        </g>
    </g>
</svg>
